<svg xmlns="http://www.w3.org/2000/svg" width="800" height="500" viewBox="0 0 800 500" role="img" aria-labelledby="title desc">
  <title id="title">Batalawatta Plant Nursery special offer</title>
  <desc id="desc">Promotional banner with a green gradient background, plant leaves, and an offer for indoor and seasonal plants.</desc>
  <defs>
    <linearGradient id="bg" x1="0" y1="0" x2="1" y2="1">
      <stop offset="0%" stop-color="#0d2f22" />
      <stop offset="55%" stop-color="#124632" />
      <stop offset="100%" stop-color="#0a1d15" />
    </linearGradient>
    <linearGradient id="accent" x1="0" y1="0" x2="1" y2="1">
      <stop offset="0%" stop-color="#2ee59d" />
      <stop offset="100%" stop-color="#8ef0c6" />
    </linearGradient>
    <filter id="shadow" x="-20%" y="-20%" width="140%" height="140%">
      <feDropShadow dx="0" dy="18" stdDeviation="18" flood-color="#000000" flood-opacity="0.28"/>
    </filter>
  </defs>
  <rect width="800" height="500" rx="34" fill="url(#bg)"/>
  <circle cx="688" cy="92" r="130" fill="#2ee59d" opacity="0.14"/>
  <circle cx="115" cy="470" r="170" fill="#8ef0c6" opacity="0.10"/>
  <g opacity="0.28">
    <path d="M668 136c36 10 66 44 76 85-39 5-81-8-110-38 3-17 13-34 34-47z" fill="#8ef0c6"/>
    <path d="M598 358c50-26 119-23 167 8-35 45-108 63-161 39-12-16-15-31-6-47z" fill="#2ee59d"/>
    <path d="M108 126c58-6 115 24 148 71-54 28-127 17-175-30 2-15 12-29 27-41z" fill="#8ef0c6"/>
  </g>
  <rect x="56" y="54" width="220" height="42" rx="21" fill="#2ee59d" opacity="0.16" stroke="#2ee59d" stroke-opacity="0.35"/>
  <text x="86" y="80" fill="#d8fff0" font-family="Arial, Helvetica, sans-serif" font-size="20" font-weight="700">LIMITED NURSERY OFFER</text>
  <text x="56" y="176" fill="#f5fff9" font-family="Arial, Helvetica, sans-serif" font-size="60" font-weight="800">Indoor &amp; Seasonal</text>
  <text x="56" y="244" fill="#f5fff9" font-family="Arial, Helvetica, sans-serif" font-size="60" font-weight="800">Plants Collection</text>
  <text x="58" y="304" fill="#d9efe4" font-family="Arial, Helvetica, sans-serif" font-size="28">Fresh arrivals for home gardens, balconies, and living spaces.</text>
  <g filter="url(#shadow)">
    <rect x="58" y="346" width="244" height="86" rx="22" fill="#07140f" fill-opacity="0.52" stroke="#2ee59d" stroke-opacity="0.28"/>
    <text x="86" y="386" fill="#8ef0c6" font-family="Arial, Helvetica, sans-serif" font-size="22" font-weight="700">UP TO 20% OFF</text>
    <text x="86" y="414" fill="#f5fff9" font-family="Arial, Helvetica, sans-serif" font-size="22" font-weight="700">Selected plants this week</text>
  </g>
  <g transform="translate(500 150)">
    <rect x="0" y="0" width="220" height="248" rx="28" fill="#f2fff8" fill-opacity="0.08" stroke="#d5fff0" stroke-opacity="0.22"/>
    <path d="M114 222c-1-86 18-128 69-173 12 53-9 112-54 149-5 10-9 17-15 24z" fill="#79f3bf" opacity="0.94"/>
    <path d="M109 222c-37-43-47-94-27-148 42 26 70 77 65 128-9 8-21 14-38 20z" fill="#2ee59d" opacity="0.88"/>
    <path d="M112 224c-57-25-86-72-86-126 55 5 103 41 125 88-6 17-18 29-39 38z" fill="#b6ffe1" opacity="0.85"/>
    <circle cx="116" cy="228" r="12" fill="#e9fff4"/>
  </g>
</svg>
